<svg width="512" height="512" viewBox="0 0 512 512" fill="none" xmlns="http://www.w3.org/2000/svg">
<path fill-rule="evenodd" clip-rule="evenodd" d="M322.5 71.0549C315.35 71.4489 293.266 71.8229 273.424 71.8859C222.665 72.0459 211.97 73.4339 194.842 82.0799C174.305 92.4469 155.407 113.614 144.872 138.052C140.181 148.933 135.838 163.413 136.639 165.502C137.827 168.597 260.054 166.842 270.629 163.578C292.03 156.971 318.51 130.014 334.489 98.5669C343.725 80.3889 345.142 69.7499 338.271 70.1689C336.747 70.2619 329.65 70.6609 322.5 71.0549ZM73 260.776C73 317.089 73.939 326.861 81.547 349.77C93.689 386.329 116.108 412.881 147.628 428.033C179.09 443.158 223.679 446.87 261.027 437.475C286.715 431.013 306.187 420.001 323.064 402.392C336.089 388.802 345.693 373.084 352.328 354.5L355.541 345.5L361.521 345.808C369.555 346.222 384.853 344.402 393.791 341.968C416.246 335.856 430.991 321.433 436.697 300C439.078 291.055 439.082 269.968 436.704 261C429.968 235.603 412.604 220.496 384.498 215.58C376.579 214.195 357.361 214.006 224.25 214.003L73 214V260.776ZM385.932 243.546C404.078 247.823 412.773 260.545 411.802 281.394C411.31 291.947 409.244 297.511 403.426 303.95C396.344 311.789 385.644 315.381 371.038 314.823L362.575 314.5L362.881 279.003C363.05 259.479 363.397 243.167 363.653 242.753C364.463 241.442 379.24 241.968 385.932 243.546Z" fill="#00D465"/>
</svg>
