<svg width="512" height="512" viewBox="0 0 512 512" fill="none" xmlns="http://www.w3.org/2000/svg">
<path fill-rule="evenodd" clip-rule="evenodd" d="M253.445 34.9679C250.577 36.1169 245.443 42.1909 242.611 47.7869C237.173 58.5339 228.403 89.2289 224.925 109.685L223.703 116.869L203.102 96.0969C182.339 75.1629 173.006 67.2859 163.372 62.5689C150.749 56.3879 145.441 60.7049 145.625 76.9999C145.758 88.7539 149.184 104.395 156.431 126.322C160.434 138.436 161.289 142.021 160.08 141.619C159.211 141.33 150.625 138.403 141 135.113C107.209 123.565 89.8308 123.309 81.6718 134.237C74.1168 144.357 84.5548 173.171 107.216 204.75L113.136 213H257.418H401.699L407.236 204.75C421.778 183.086 430.69 164.125 432.534 150.929C434.004 140.416 428.019 131.404 417.966 128.992C411.524 127.446 396.551 128.127 385.5 130.468C381.1 131.4 371.762 134.074 364.75 136.41C357.738 138.746 352.009 140.397 352.02 140.079C352.031 139.76 354.062 133.2 356.534 125.5C367.666 90.8139 369.232 68.4059 360.84 63.9139C358.217 62.5109 351.173 63.3549 346.733 65.6049C335.762 71.1639 319.186 84.8959 301.723 102.89C295.246 109.564 289.774 114.456 289.564 113.762C289.353 113.068 287.518 105.3 285.484 96.4999C275.276 52.3179 264.034 30.7279 253.445 34.9679ZM118.517 242.013C111.552 245.611 108.504 250.466 105.97 262C95.5208 309.557 99.8788 350.049 118.347 377C128.501 391.817 141.706 400.879 164.279 408.52C192.01 417.907 198.83 425.858 199.002 449C199.124 465.381 201.036 469.903 209.591 474.044C217.243 477.748 229.007 478.93 258.334 478.941C293.7 478.953 305.322 477.467 313.081 471.942C318.326 468.208 319.321 464.9 319.981 449C320.538 435.562 320.789 434.121 323.411 429.323C324.966 426.475 327.422 423.018 328.869 421.64C333.694 417.044 342.865 412.282 353.235 408.987C379.42 400.666 395.538 388.137 405.847 368.089C414.461 351.338 417.99 334.418 417.996 309.842C418.002 284.601 413.174 255.23 407.822 247.959C406.545 246.224 403.475 243.615 401.001 242.161L396.501 239.518L260.001 239.479L123.5 239.439L118.517 242.013ZM218.607 270.456C231.171 276.121 236.011 292.429 231.013 312.262C228.795 321.065 228.57 321.55 221.643 332.5C208.262 353.65 198.202 365.016 191.123 366.983C176.11 371.153 154.573 361.869 148.374 348.556C142.706 336.384 148.004 317.22 163.455 294C173.717 278.578 183.775 270.594 196.176 268.025C202.524 266.711 212.76 267.82 218.607 270.456ZM324.364 270.151C337.176 275.181 348.137 287.521 359.343 309.531C373.416 337.169 370.013 353.717 348.106 364.184C343.11 366.571 339.895 367.353 333.399 367.758C325.786 368.233 324.611 368.044 319.452 365.52C312.771 362.251 305.277 353.385 293.236 334.5C284.131 320.222 280.91 310.936 280.747 298.5C280.467 277.209 292.568 265.831 313.5 267.704C316.8 268 321.689 269.101 324.364 270.151ZM262.918 372.958C267.445 375.268 271.109 380.498 277.952 394.419C284.065 406.856 284.886 410.684 282.163 414.048C280.4 416.227 279.417 416.496 273.34 416.462C269.578 416.441 263.8 416.257 260.5 416.053C257.2 415.85 250.358 416.045 245.296 416.487C237.472 417.17 235.71 417.04 233.546 415.622C229.073 412.691 229.959 407.466 237.477 392.443C244.58 378.25 246.051 376.159 251.097 373.082C255.343 370.493 258.031 370.465 262.918 372.958Z" fill="#333333"/>
</svg>
