<svg width="512" height="512" viewBox="0 0 512 512" fill="none" xmlns="http://www.w3.org/2000/svg">
<path fill-rule="evenodd" clip-rule="evenodd" d="M253.208 34.9679C250.34 36.1169 245.206 42.1909 242.374 47.7869C236.936 58.5339 228.166 89.2289 224.688 109.685L223.466 116.869L202.865 96.0969C182.102 75.1629 172.769 67.2859 163.135 62.5689C150.512 56.3879 145.204 60.7049 145.388 76.9999C145.521 88.7539 148.947 104.395 156.194 126.322C160.197 138.436 161.052 142.021 159.843 141.619C158.974 141.33 150.388 138.403 140.763 135.113C106.972 123.565 89.5945 123.309 81.4355 134.237C73.8805 144.357 84.3185 173.171 106.979 204.75L112.899 213H257.181H401.462L406.999 204.75C421.541 183.086 430.453 164.125 432.297 150.929C433.767 140.416 427.782 131.404 417.729 128.992C411.287 127.446 396.314 128.127 385.263 130.468C380.863 131.4 371.525 134.074 364.513 136.41C357.501 138.746 351.772 140.397 351.783 140.079C351.794 139.76 353.825 133.2 356.297 125.5C367.429 90.8139 368.995 68.4059 360.603 63.9139C357.98 62.5109 350.936 63.3549 346.496 65.6049C335.525 71.1639 318.949 84.8959 301.486 102.89C295.009 109.564 289.537 114.456 289.327 113.762C289.116 113.068 287.281 105.3 285.247 96.4999C275.039 52.3179 263.797 30.7279 253.208 34.9679Z" fill="#CC036D"/>
<path fill-rule="evenodd" clip-rule="evenodd" d="M118.281 242.013C111.316 245.611 108.268 250.466 105.734 262C95.2846 309.557 99.6426 350.049 118.111 377C128.265 391.817 141.47 400.879 164.043 408.52C191.774 417.907 198.594 425.858 198.766 449C198.888 465.381 200.8 469.903 209.355 474.044C217.007 477.748 228.771 478.93 258.098 478.941C293.464 478.953 305.086 477.467 312.845 471.942C318.09 468.208 319.085 464.9 319.745 449C320.302 435.562 320.553 434.121 323.175 429.323C324.73 426.475 327.186 423.018 328.633 421.64C333.458 417.044 342.629 412.282 352.999 408.987C379.184 400.666 395.302 388.137 405.611 368.089C414.225 351.338 417.754 334.418 417.76 309.842C417.766 284.601 412.938 255.23 407.586 247.959C406.309 246.224 403.239 243.615 400.765 242.161L396.265 239.518L259.765 239.479L123.264 239.439L118.281 242.013ZM218.371 270.456C230.935 276.121 235.775 292.429 230.777 312.262C228.559 321.065 228.334 321.55 221.407 332.5C208.026 353.65 197.966 365.016 190.887 366.983C175.874 371.153 154.337 361.869 148.138 348.556C142.47 336.384 147.768 317.22 163.219 294C173.481 278.578 183.539 270.594 195.94 268.025C202.288 266.711 212.524 267.82 218.371 270.456ZM324.128 270.151C336.94 275.181 347.901 287.521 359.107 309.531C373.18 337.169 369.777 353.717 347.87 364.184C342.874 366.571 339.659 367.353 333.163 367.758C325.55 368.233 324.375 368.044 319.216 365.52C312.535 362.251 305.041 353.385 293 334.5C283.895 320.222 280.674 310.936 280.511 298.5C280.231 277.209 292.332 265.831 313.264 267.704C316.564 268 321.453 269.101 324.128 270.151ZM262.682 372.958C267.209 375.268 270.873 380.498 277.716 394.419C283.829 406.856 284.65 410.684 281.927 414.048C280.164 416.227 279.181 416.496 273.104 416.462C269.342 416.441 263.564 416.257 260.264 416.053C256.964 415.85 250.122 416.045 245.06 416.487C237.236 417.17 235.474 417.04 233.31 415.622C228.837 412.691 229.723 407.466 237.241 392.443C244.344 378.25 245.815 376.159 250.861 373.082C255.107 370.493 257.795 370.465 262.682 372.958Z" fill="#676767"/>
</svg>
