<svg width="512" height="512" viewBox="0 0 512 512" fill="none" xmlns="http://www.w3.org/2000/svg">
<path fill-rule="evenodd" clip-rule="evenodd" d="M364.896 87.0729C343.721 90.2969 298.946 97.0219 265.396 102.018C231.846 107.013 200.346 111.743 195.396 112.527C190.446 113.312 167.946 116.674 145.396 119.999C99.892 126.708 99.626 126.754 100.273 127.801C100.678 128.457 122.468 200.109 128.361 220.163L130.613 227.826L99.806 227.26L69 226.693L77.964 253.597C82.895 268.393 96.201 308.625 107.534 343C118.867 377.375 128.299 405.677 128.494 405.894C128.69 406.11 159.926 400.088 197.908 392.512C235.89 384.936 267.132 378.909 267.335 379.118C267.538 379.328 267.055 390.3 266.261 403.5C265.468 416.7 264.949 429.334 265.107 431.575L265.396 435.651L280.896 428.458C289.421 424.501 324.521 408.32 358.896 392.499C393.271 376.678 421.505 363.647 421.638 363.541C422.025 363.234 424.46 348.693 429.431 317C436.094 274.516 439.707 251.703 441.307 242C442.078 237.325 442.613 233.399 442.495 233.276C442.377 233.152 430.944 232.743 417.088 232.367C394.338 231.749 391.896 231.518 391.896 229.987C391.896 228.16 394.544 198.774 400.889 130.181C405.108 84.5679 405.349 80.9359 404.146 81.1049C403.733 81.1629 386.071 83.8489 364.896 87.0729ZM357.287 173.947C364.588 177.482 368.167 185.567 365.997 193.626C364.865 197.829 360.014 203.24 355.896 204.894L353.396 205.898L355.771 206.598C365.395 209.436 370.325 215.156 370.325 223.485C370.325 230.308 367.401 235.724 361.593 239.664C354.885 244.213 349.469 245 324.847 245H302.896V209V173L306.146 172.873C307.934 172.803 314.346 172.4 320.396 171.979C338.865 170.691 352.009 171.392 357.287 173.947ZM294.896 180.35V187.701L285.742 188.35C280.708 188.708 273.733 189 270.242 189H263.896V195.5V202H275.896H287.896V209V216H275.896H263.896V223.5V231H279.896H295.896V238V245H269.396H242.896V210.5V176L246.146 175.903C250.736 175.765 293.238 173.326 294.146 173.147C294.559 173.066 294.896 176.308 294.896 180.35ZM237.417 178.25C237.188 178.938 233.578 192.775 229.395 209C225.211 225.225 221.552 239.303 221.264 240.285C220.799 241.865 219.635 242.038 211.137 241.785L201.536 241.5L200.705 238.5C200.247 236.85 198.255 229.2 196.278 221.5C194.3 213.8 192.365 206.921 191.978 206.212C191.416 205.184 185.685 224.791 182.31 239.286L181.661 242.072L172.56 241.786L163.458 241.5L156.246 212.015C152.279 195.798 149.115 182.456 149.215 182.366C149.314 182.276 153.221 181.888 157.897 181.504L166.398 180.805L170.353 199.363C172.529 209.569 174.538 217.691 174.818 217.411C175.098 217.132 177.482 208.748 180.115 198.781C182.749 188.814 185.044 180.519 185.215 180.347C185.387 180.176 188.829 179.915 192.865 179.768L200.203 179.5L205.235 198.265C208.002 208.585 210.557 216.685 210.913 216.265C211.269 215.844 213.519 207.085 215.915 196.799L220.27 178.099L223.333 177.709C230.936 176.743 237.831 177.008 237.417 178.25ZM324.896 193.613V202.226L331.901 201.83C340.008 201.372 342.604 199.573 343.547 193.764C344.034 190.764 343.695 189.708 341.56 187.573C339.283 185.296 338.177 185 331.941 185H324.896V193.613ZM324.896 222.5V232.263L332.146 231.797C336.134 231.541 340.395 230.707 341.617 229.943C346.597 226.831 346.961 218.399 342.25 215.312C340.774 214.345 336.778 213.5 332.336 213.214L324.896 212.737V222.5ZM180.396 257.871L191.396 258.5V266V273.5L180.161 273.143L168.926 272.785L168.661 303.143L168.396 333.5L155.146 333.779L141.896 334.058V303.548V273.038L139.646 272.517C138.408 272.231 132.896 271.885 127.396 271.748L117.396 271.5L117.102 263.635L116.808 255.771L143.102 256.507C157.564 256.912 174.346 257.526 180.396 257.871ZM239.896 259.06C254.309 261.377 264.301 269.097 267.879 280.679C270.588 289.45 270.557 300.648 267.8 309.575C261.984 328.405 237.907 337.418 213.904 329.75C208.695 328.086 206.313 326.571 201.853 322.088C194.619 314.815 192.447 308.493 192.548 295C192.668 278.884 198.149 268.952 210.188 263.03C219.934 258.236 228.037 257.154 239.896 259.06ZM322.018 263.693C328.586 266.65 334.275 272.172 337.026 278.258C339.078 282.796 339.396 285.044 339.396 295C339.396 304.948 339.077 307.205 337.033 311.727C334.262 317.855 327.659 324.304 321.072 327.316C317.256 329.061 314.464 329.458 305.896 329.477C293.133 329.505 287.377 327.36 280.508 320.016C274.82 313.935 272.896 307.725 272.896 295.444C272.896 278.161 279.137 268.09 293.038 262.943C300.313 260.25 315.229 260.636 322.018 263.693ZM364.655 265.704C365.348 266.641 369.623 274.135 374.155 282.358L382.396 297.307L382.896 280.904C383.463 262.309 382.14 264.437 392.896 264.821L397.896 265V295.391V325.781L390.146 326.224C385.884 326.468 382.121 326.529 381.785 326.36C381.448 326.191 376.498 317.634 370.785 307.345L360.396 288.636L360.125 307.76L359.853 326.884L355.598 327.522C353.258 327.873 349.78 328.012 347.87 327.83L344.396 327.5L344.131 296.51C343.986 279.465 344.109 264.886 344.407 264.112C345.234 261.957 362.913 263.347 364.655 265.704ZM227.515 274.012C220.304 276.227 217.91 281.549 217.902 295.384C217.892 311.429 221.414 317 231.568 317C237.976 317 241.781 315.123 244.51 310.614C246.08 308.021 246.396 305.492 246.394 295.5C246.392 282.568 245.217 278.517 240.625 275.606C237.648 273.718 231.075 272.919 227.515 274.012ZM301.071 276.254C299.793 276.869 297.831 279.166 296.713 281.359C293.971 286.733 293.794 303.229 296.415 309.042C300.384 317.844 313.122 318.265 317.53 309.741C319.532 305.869 320.423 295.376 319.427 287.401C318.84 282.703 318.078 280.982 315.399 278.303C312.638 275.542 311.382 275.011 307.746 275.068C305.353 275.105 302.35 275.639 301.071 276.254Z" fill="#01D566"/>
</svg>
