<svg width="512" height="512" viewBox="0 0 512 512" fill="none" xmlns="http://www.w3.org/2000/svg">
<path fill-rule="evenodd" clip-rule="evenodd" d="M365 87.0729C343.825 90.2969 299.05 97.0219 265.5 102.018C231.95 107.013 200.45 111.743 195.5 112.527C190.55 113.312 168.05 116.674 145.5 119.999C99.996 126.708 99.73 126.754 100.377 127.801C100.782 128.457 122.572 200.109 128.465 220.163L130.717 227.826L99.91 227.26L69.104 226.693L78.068 253.597C82.999 268.393 96.305 308.625 107.638 343C118.971 377.375 128.403 405.677 128.598 405.894C128.794 406.11 160.03 400.088 198.012 392.512C235.994 384.936 267.236 378.909 267.439 379.118C267.642 379.328 267.159 390.3 266.365 403.5C265.572 416.7 265.053 429.334 265.211 431.575L265.5 435.651L281 428.458C289.525 424.501 324.625 408.32 359 392.499C393.375 376.678 421.609 363.647 421.742 363.541C422.129 363.234 424.564 348.693 429.535 317C436.198 274.516 439.811 251.703 441.411 242C442.182 237.325 442.717 233.399 442.599 233.276C442.481 233.152 431.048 232.743 417.192 232.367C394.442 231.749 392 231.518 392 229.987C392 228.16 394.648 198.774 400.993 130.181C405.212 84.5679 405.453 80.9359 404.25 81.1049C403.837 81.1629 386.175 83.8489 365 87.0729ZM357.391 173.947C364.692 177.482 368.271 185.567 366.101 193.626C364.969 197.829 360.118 203.24 356 204.894L353.5 205.898L355.875 206.598C365.499 209.436 370.429 215.156 370.429 223.485C370.429 230.308 367.505 235.724 361.697 239.664C354.989 244.213 349.573 245 324.951 245H303V209V173L306.25 172.873C308.038 172.803 314.45 172.4 320.5 171.979C338.969 170.691 352.113 171.392 357.391 173.947ZM295 180.35V187.701L285.846 188.35C280.812 188.708 273.837 189 270.346 189H264V195.5V202H276H288V209V216H276H264V223.5V231H280H296V238V245H269.5H243V210.5V176L246.25 175.903C250.84 175.765 293.342 173.326 294.25 173.147C294.663 173.066 295 176.308 295 180.35ZM237.521 178.25C237.292 178.938 233.682 192.775 229.499 209C225.315 225.225 221.656 239.303 221.368 240.285C220.903 241.865 219.739 242.038 211.241 241.785L201.64 241.5L200.809 238.5C200.351 236.85 198.359 229.2 196.382 221.5C194.404 213.8 192.469 206.921 192.082 206.212C191.52 205.184 185.789 224.791 182.414 239.286L181.765 242.072L172.664 241.786L163.562 241.5L156.35 212.015C152.383 195.798 149.219 182.456 149.319 182.366C149.418 182.276 153.325 181.888 158.001 181.504L166.502 180.805L170.457 199.363C172.633 209.569 174.642 217.691 174.922 217.411C175.202 217.132 177.586 208.748 180.219 198.781C182.853 188.814 185.148 180.519 185.319 180.347C185.491 180.176 188.933 179.915 192.969 179.768L200.307 179.5L205.339 198.265C208.106 208.585 210.661 216.685 211.017 216.265C211.373 215.844 213.623 207.085 216.019 196.799L220.374 178.099L223.437 177.709C231.04 176.743 237.935 177.008 237.521 178.25ZM325 193.613V202.226L332.005 201.83C340.112 201.372 342.708 199.573 343.651 193.764C344.138 190.764 343.799 189.708 341.664 187.573C339.387 185.296 338.281 185 332.045 185H325V193.613ZM325 222.5V232.263L332.25 231.797C336.238 231.541 340.499 230.707 341.721 229.943C346.701 226.831 347.065 218.399 342.354 215.312C340.878 214.345 336.882 213.5 332.44 213.214L325 212.737V222.5ZM180.5 257.871L191.5 258.5V266V273.5L180.265 273.143L169.03 272.785L168.765 303.143L168.5 333.5L155.25 333.779L142 334.058V303.548V273.038L139.75 272.517C138.512 272.231 133 271.885 127.5 271.748L117.5 271.5L117.206 263.635L116.912 255.771L143.206 256.507C157.668 256.912 174.45 257.526 180.5 257.871ZM240 259.06C254.413 261.377 264.405 269.097 267.983 280.679C270.692 289.45 270.661 300.648 267.904 309.575C262.088 328.405 238.011 337.418 214.008 329.75C208.799 328.086 206.417 326.571 201.957 322.088C194.723 314.815 192.551 308.493 192.652 295C192.772 278.884 198.253 268.952 210.292 263.03C220.038 258.236 228.141 257.154 240 259.06ZM322.122 263.693C328.69 266.65 334.379 272.172 337.13 278.258C339.182 282.796 339.5 285.044 339.5 295C339.5 304.948 339.181 307.205 337.137 311.727C334.366 317.855 327.763 324.304 321.176 327.316C317.36 329.061 314.568 329.458 306 329.477C293.237 329.505 287.481 327.36 280.612 320.016C274.924 313.935 273 307.725 273 295.444C273 278.161 279.241 268.09 293.142 262.943C300.417 260.25 315.333 260.636 322.122 263.693ZM364.759 265.704C365.452 266.641 369.727 274.135 374.259 282.358L382.5 297.307L383 280.904C383.567 262.309 382.244 264.437 393 264.821L398 265V295.391V325.781L390.25 326.224C385.988 326.468 382.225 326.529 381.889 326.36C381.552 326.191 376.602 317.634 370.889 307.345L360.5 288.636L360.229 307.76L359.957 326.884L355.702 327.522C353.362 327.873 349.884 328.012 347.974 327.83L344.5 327.5L344.235 296.51C344.09 279.465 344.213 264.886 344.511 264.112C345.338 261.957 363.017 263.347 364.759 265.704ZM227.619 274.012C220.408 276.227 218.014 281.549 218.006 295.384C217.996 311.429 221.518 317 231.672 317C238.08 317 241.885 315.123 244.614 310.614C246.184 308.021 246.5 305.492 246.498 295.5C246.496 282.568 245.321 278.517 240.729 275.606C237.752 273.718 231.179 272.919 227.619 274.012ZM301.175 276.254C299.897 276.869 297.935 279.166 296.817 281.359C294.075 286.733 293.898 303.229 296.519 309.042C300.488 317.844 313.226 318.265 317.634 309.741C319.636 305.869 320.527 295.376 319.531 287.401C318.944 282.703 318.182 280.982 315.503 278.303C312.742 275.542 311.486 275.011 307.85 275.068C305.457 275.105 302.454 275.639 301.175 276.254Z" fill="#333333"/>
</svg>
